<?xml version="1.0" encoding="utf-8"?>
<svg width="298px" height="329px" viewBox="0 0 298 329" version="1.1" xmlns:xlink="http://www.w3.org/1999/xlink" xmlns="http://www.w3.org/2000/svg">
    <path d="M114 11.722C149.328 -4.16641 148.304 -3.64606 183.324 11.7219C183.538 12.0494 235.156 36.223 269.057 52.0752C269.057 52.0752 297.999 66.5975 297.999 93.9904C298 114.786 297.999 216.604 297.999 238.451C298 260.298 275.299 272.158 272.773 273.368C246.16 286.115 205.121 305.72 183.324 315.864C149.352 331.673 148.278 332.82 114.781 316.504C114.781 316.645 67.1887 293.701 33.2957 277.344C33.2957 277.344 0 263.432 0 238.451C0 213.47 0 121.946 0 93.9904C0 72.6274 9.37914 62.5509 27.9995 52.9818C46.6199 43.4127 113.898 11.915 114 11.722Z" id="矩形-3" fill="#6186FC" fill-opacity="0.49803922" fill-rule="evenodd" stroke="none" />
    <path d="M110.258 6.63694C89.8381 -2.34167 89.7976 -2.35947 67.8872 7.49458C67.8222 7.61798 29.807 27.7564 17.9018 33.8745C5.99667 39.9927 0 46.4352 0 60.0939L0 152.456C0 168.428 21.288 177.323 21.288 177.323C42.9413 187.773 68.3474 202.428 68.3864 202.361C68.9638 202.642 69.526 202.915 70.0741 203.18L74.3349 205.173C74.3349 205.173 74.5854 205.308 75.0235 205.523C75.7726 205.866 76.4915 206.189 77.1836 206.491C81.7658 208.367 90.2646 210.737 90.2646 202.499L90.2646 97.711C90.2646 78.7796 92.7481 80.4672 102.964 73.8406C107.515 70.8888 124.394 61.7892 141.715 52.6043C141.715 52.6043 141.644 52.6447 141.648 52.6523C141.662 52.6846 143.012 52.1224 156.802 45.3205C171.727 37.9589 159.851 30.2519 156.687 28.4592C136.213 18.8776 112.327 7.67263 112.21 7.49456C111.539 7.20016 110.889 6.91427 110.258 6.63694ZM90.6768 209.839L90.2646 209.839C90.2646 209.839 90.261 209.845 90.2536 209.857C90.3946 209.852 90.5356 209.847 90.6768 209.839Z" transform="translate(59.99951 56.240173)" id="1" fill="#6186FC" fill-rule="evenodd" stroke="none" />
</svg>